<svg width="210" height="44" viewBox="0 0 210 44" fill="none" xmlns="http://www.w3.org/2000/svg">
<path d="M10 40.55C7.03 40.55 4.75667 39.7067 3.18 38.02C1.60333 36.3333 0.815 33.95 0.815 30.87V10.63C0.815 7.55 1.60333 5.16666 3.18 3.48C4.75667 1.79333 7.03 0.949998 10 0.949998C12.97 0.949998 15.2433 1.79333 16.82 3.48C18.3967 5.16666 19.185 7.55 19.185 10.63V30.87C19.185 33.95 18.3967 36.3333 16.82 38.02C15.2433 39.7067 12.97 40.55 10 40.55ZM10 35.05C12.09 35.05 13.135 33.785 13.135 31.255V10.245C13.135 7.715 12.09 6.45 10 6.45C7.91 6.45 6.865 7.715 6.865 10.245V31.255C6.865 33.785 7.91 35.05 10 35.05ZM27.7916 7H21.4666V1.5H40.1666V7H33.8416V40H27.7916V7ZM45.2464 1.5H53.4414L59.7114 40H53.6614L52.5614 32.355V32.465H45.6864L44.5864 40H38.9764L45.2464 1.5ZM51.8464 27.24L49.1514 8.21H49.0414L46.4014 27.24H51.8464ZM62.6466 1.5H68.6966V17.725L76.3966 1.5H82.4466L75.2416 15.635L82.5566 40H76.2316L71.1166 22.84L68.6966 27.735V40H62.6466V1.5ZM94.1663 40.55C91.233 40.55 88.9963 39.725 87.4563 38.075C85.9163 36.3883 85.1463 33.9867 85.1463 30.87V1.5H91.1963V31.31C91.1963 32.63 91.453 33.5833 91.9663 34.17C92.5163 34.7567 93.2863 35.05 94.2763 35.05C95.2663 35.05 96.018 34.7567 96.5313 34.17C97.0813 33.5833 97.3563 32.63 97.3563 31.31V1.5H103.186V30.87C103.186 33.9867 102.416 36.3883 100.876 38.075C99.3363 39.725 97.0997 40.55 94.1663 40.55Z" fill="white"/>
<path d="M125.315 43.575C122.565 43.575 120.879 42.3467 120.255 39.89C119.119 40.33 117.78 40.55 116.24 40.55C113.27 40.55 110.997 39.7067 109.42 38.02C107.844 36.3333 107.055 33.95 107.055 30.87V10.63C107.055 7.55 107.844 5.16666 109.42 3.48C110.997 1.79333 113.27 0.949998 116.24 0.949998C119.21 0.949998 121.484 1.79333 123.06 3.48C124.637 5.16666 125.425 7.55 125.425 10.63V30.87C125.425 33.4367 124.857 35.545 123.72 37.195C123.94 37.5617 124.215 37.8 124.545 37.91C124.875 38.02 125.352 38.075 125.975 38.075H126.91V43.575H125.315ZM116.24 35.05C118.33 35.05 119.375 33.785 119.375 31.255V10.245C119.375 7.715 118.33 6.45 116.24 6.45C114.15 6.45 113.105 7.715 113.105 10.245V31.255C113.105 33.785 114.15 35.05 116.24 35.05ZM138.317 40.55C135.383 40.55 133.147 39.725 131.607 38.075C130.067 36.3883 129.297 33.9867 129.297 30.87V1.5H135.347V31.31C135.347 32.63 135.603 33.5833 136.117 34.17C136.667 34.7567 137.437 35.05 138.427 35.05C139.417 35.05 140.168 34.7567 140.682 34.17C141.232 33.5833 141.507 32.63 141.507 31.31V1.5H147.337V30.87C147.337 33.9867 146.567 36.3883 145.027 38.075C143.487 39.725 141.25 40.55 138.317 40.55ZM151.646 1.5H168.146V7H157.696V17.175H166.001V22.675H157.696V34.5H168.146V40H151.646V1.5ZM179.599 40.55C176.665 40.55 174.447 39.725 172.944 38.075C171.44 36.3883 170.689 33.9867 170.689 30.87V28.67H176.409V31.31C176.409 33.8033 177.454 35.05 179.544 35.05C180.57 35.05 181.34 34.7567 181.854 34.17C182.404 33.5467 182.679 32.5567 182.679 31.2C182.679 29.5867 182.312 28.175 181.579 26.965C180.845 25.7183 179.489 24.2333 177.509 22.51C175.015 20.31 173.274 18.33 172.284 16.57C171.294 14.7733 170.799 12.7567 170.799 10.52C170.799 7.47667 171.569 5.13 173.109 3.48C174.649 1.79333 176.885 0.949998 179.819 0.949998C182.715 0.949998 184.897 1.79333 186.364 3.48C187.867 5.13 188.619 7.51333 188.619 10.63V12.225H182.899V10.245C182.899 8.925 182.642 7.97166 182.129 7.385C181.615 6.76167 180.864 6.45 179.874 6.45C177.857 6.45 176.849 7.67833 176.849 10.135C176.849 11.5283 177.215 12.83 177.949 14.04C178.719 15.25 180.094 16.7167 182.074 18.44C184.604 20.64 186.345 22.6383 187.299 24.435C188.252 26.2317 188.729 28.34 188.729 30.76C188.729 33.9133 187.94 36.3333 186.364 38.02C184.824 39.7067 182.569 40.55 179.599 40.55ZM196.927 7H190.602V1.5H209.302V7H202.977V40H196.927V7Z" fill="#991B1B"/>
</svg>
